<svg width="1256" height="1117" viewBox="0 0 1256 1117" fill="none" xmlns="http://www.w3.org/2000/svg">
<path fill-rule="evenodd" clip-rule="evenodd" d="M2.70703 587.438L627.707 941.438L1252.71 587.438V502.438C1236.04 477.272 1191.71 431.039 1147.71 447.438C1182.37 465.272 1241.31 507.339 1199.71 532.938C1181.04 544.427 1098.83 586.692 998.207 637.568V218L951.895 190.75V660.939C929.132 672.406 905.823 684.121 882.426 695.859V149.875L859.27 136.25L812.957 109V730L796.633 738.812C786.532 743.86 776.522 748.858 766.645 753.789V81.75L743.488 68.125L720.332 54.5L628.207 0.294189V0L627.957 0.147217L627.707 0V0.294189L535.582 54.5L512.426 68.125L489.27 81.75V754.038C481.423 750.122 473.494 746.163 465.501 742.169L442.957 730V109L396.645 136.25L373.488 149.875V696.11C350.094 684.374 326.786 672.659 304.02 661.191V190.75L257.707 218V637.821C156.856 586.832 74.4072 544.447 55.707 532.938C14.1069 507.339 73.0405 465.272 107.707 447.438C63.707 431.039 19.3735 477.272 2.70703 502.438V587.438ZM1255.95 629.987L627.963 981.491L0 629.999V765.487L627.947 1116.97V1116.99L627.963 1116.98L628 1117V1116.96L1255.95 765.476V629.987Z" fill="url(#paint0_linear_10:181)"/>
<defs>
<linearGradient id="paint0_linear_10:181" x1="627.974" y1="0" x2="627.974" y2="1117" gradientUnits="userSpaceOnUse">
<stop stop-color="#FF0000"/>
<stop offset="1" stop-color="#011AFF"/>
</linearGradient>
</defs>
</svg>
