<svg width="3171" height="703" viewBox="0 0 3171 703" fill="none" xmlns="http://www.w3.org/2000/svg">
<path d="M3063.16 35.24H3032.8V113H3024.4V35.24H2994.04V27.8H3063.16V35.24ZM3151.4 113V43.64L3120.56 97.52H3115.28L3084.32 43.64V113H3075.92V27.8H3084.56L3117.8 86.12L3151.28 27.8H3159.8V113H3151.4Z" fill="#00AD56"/>
<path d="M1358 287C1294.8 292.6 1273 335 1270 355.5C1328 313.1 1601.17 317.5 1730.5 325C1793.7 325 1817.5 299.667 1821.5 287L1832 233.5C1810 277.1 1755.17 287.333 1730.5 287C1606.03 287.028 1357.27 287.067 1358 287Z" fill="#35C96F"/>
<path d="M1335.5 422.5C1276.3 427.3 1249.17 468.167 1243 488C1252.2 415.6 1301.83 384.167 1325.5 377.5H1631.5C1737.1 384.7 1793.5 363.5 1808.5 352C1798.5 404.8 1749.33 421 1726 422.5H1335.5Z" fill="#01703F" stroke="#006237" stroke-width="2"/>
<path d="M1247.24 464.489L1242.5 487.5C1243.26 479.145 1244.89 471.493 1247.24 464.489L1270.5 351.5C1282 338.167 1319.3 311.1 1376.5 309.5H1727.5C1747.83 309.833 1795.6 302.7 1824 271.5L1806 360C1800.83 371.167 1775.7 393.6 1716.5 394H1376.5C1339.23 392.36 1267.18 405.096 1247.24 464.489Z" fill="#009F52"/>
<path d="M1553.5 22C1479.9 29.6 1453.17 76.8333 1449 99.5C1465 68.7 1525.33 53 1553.5 49H1863L1869 22H1553.5Z" fill="#35C96F"/>
<path d="M1514 162.5C1475.6 161.3 1440 196.333 1427 214C1434.6 161.6 1488.17 132.5 1514 124.5H1738C1801.2 125.7 1843.67 101 1857 88.5C1847.8 146.9 1792.17 162.167 1765.5 162.5H1514Z" fill="#01703F" stroke="#006237" stroke-width="3"/>
<path d="M1450 95.5L1426 214.5C1458.8 143.7 1512 131.333 1534.5 134H1768.5C1827.7 134 1852.17 104.333 1857 89.5L1862.5 48.5H1550.5C1482.9 54.9 1455.33 82.5 1450 95.5Z" fill="#009F52"/>
<path fill-rule="evenodd" clip-rule="evenodd" d="M567 34.9999C479.333 14.6666 276.8 -10.5001 168 51.4999C135.667 69.6666 70.1999 129.3 66.9999 222.5C64.8332 257.667 81.9999 338.2 168 379C215 397.167 313.3 437.8 330.5 455C341.333 463 360.2 487.4 349 521C338.833 549.167 291.8 600.5 185 580.5L28 570.5L0.5 676C50.5 685.333 171.3 703.6 254.5 702C281.167 701.833 352.7 692 425.5 654C449.167 638.667 500 592.7 514 531.5C521.5 507.667 532 447.1 514 395.5C501.667 372.5 460.2 321.5 393 301.5C351.5 288 263.9 253.3 245.5 222.5C232.5 205 222.7 162.9 287.5 134.5C300.667 126 370.4 114.1 544 134.5L567 34.9999ZM665.5 28L545.5 680.5H710.5L758.5 420.5L760 415L971.5 416.5L999 296L780 292L830 34L832 26L665.5 28ZM971.5 680.5L1089.5 28H1253.5L1132.5 680.5H971.5ZM1943.5 26.5L1825.5 680.5H1984L2033 443H2133.5L2232 683.5H2500.5L2580.5 516.5H2807.5L2828.5 683.5L2992 687L2921 27H2638L2371.5 597L2362 601L2292 426C2292 420.667 2293.1 410.1 2297.5 410.5C2297.48 410.5 2297.61 410.457 2297.89 410.369C2304.51 408.239 2393.63 379.582 2421 285C2436.33 236.833 2453.5 127.2 2399.5 74C2376.83 56.5 2306 21 2204 19C2201.2 19 2029.17 24 1943.5 26.5ZM2747 156C2751.5 144.667 2762.3 128.8 2769.5 156L2797.5 404.5H2630L2747 156ZM2084 143.5L2045 335H2137C2171.83 337 2247.3 325.3 2270.5 262.5C2274.5 244.667 2281.3 205 2276.5 189C2271 174.833 2250.1 145.9 2210.5 143.5H2084Z" fill="#00AD56"/>
<path d="M1332 551.5C1266 556.3 1245.17 511.833 1243 489C1233.8 560.2 1268.83 574.333 1287.5 572.5L1768.5 568L1772 551.5H1332Z" fill="#009F52" stroke="#006036" stroke-width="3"/>
<path d="M1223 608.5L1243 488C1235.8 554.8 1284 569.833 1309 569H1769.5L1748 684.5H1314.5C1223.7 685.7 1215.67 634.333 1223 608.5Z" fill="#01703F"/>
</svg>
